# xmcd
# Track frame offsets:
# 150
# 12043
# 27648
# 42389
# 60504
# 74440
# 85808
# 97495
# 111705
# 125247
# 141115
# 152837
# 169342
# 186334
# 198995
# 212516
# 226170
# 238699
# 254416
# 277425
# 298559
#
# Disc length: 4226 seconds
# Revision: 0
# Processed by: cddbd v1.4PL0 Copyright (c) Steve Scherf et al.
# Submitted via: VisiTrax 2.9.5.181 - For more info visit www.synapsa.com
#
DISCID=4f108015
DTITLE=Scooter Lee - All The Best
DYEAR=1900
DGENRE=Country
TTITLE0=Moving On Up
TTITLE1=You're On Your Own
TTITLE2=Baby Please Come Home
TTITLE3=Ribbon Of Highway
TTITLE4=High Test Love
TTITLE5=The Last Time, Uh, Uh
TTITLE6=You Know Where I Am
TTITLE7=Please, Please
TTITLE8=Twistin' The Night Away
TTITLE9=Honky Tonk Twist
TTITLE10=If You Don't Straighten Up
TTITLE11=J'ai Du Boogie
TTITLE12=Shadows In The Night
TTITLE13=Oeeoeeo
TTITLE14=Rock and Roll Waltz
TTITLE15=The Way Things Are
TTITLE16=Rompin' Stompin'
TTITLE17=He's My Little Jalapeno
TTITLE18=Dizzy (Extended Dance Mix)
TTITLE19=Bad Thing (Public Dance Mix)
TTITLE20=The Last Time Uh, Uh (Dance Mix)
EXTD=
EXTT0=
EXTT1=
EXTT2=
EXTT3=
EXTT4=
EXTT5=
EXTT6=
EXTT7=
EXTT8=
EXTT9=
EXTT10=
EXTT11=
EXTT12=
EXTT13=
EXTT14=
EXTT15=
EXTT16=
EXTT17=
EXTT18=
EXTT19=
EXTT20=
PLAYORDER=
